<?xml version="1.0" encoding="UTF-8" standalone="no"?>
<!-- Created with Inkscape (http://www.inkscape.org/) -->

<svg
   xmlns:dc="http://purl.org/dc/elements/1.1/"
   xmlns:cc="http://creativecommons.org/ns#"
   xmlns:rdf="http://www.w3.org/1999/02/22-rdf-syntax-ns#"
   xmlns:svg="http://www.w3.org/2000/svg"
   xmlns="http://www.w3.org/2000/svg"
   xmlns:sodipodi="http://sodipodi.sourceforge.net/DTD/sodipodi-0.dtd"
   xmlns:inkscape="http://www.inkscape.org/namespaces/inkscape"
   width="120mm"
   height="120mm"
   viewBox="0 0 120 120"
   version="1.1"
   id="svg965"
   inkscape:version="0.92.2 (5c3e80d, 2017-08-06)"
   sodipodi:docname="apache-icon.svg">
  <defs
     id="defs959" />
  <sodipodi:namedview
     id="base"
     pagecolor="#ffffff"
     bordercolor="#666666"
     borderopacity="1.0"
     inkscape:pageopacity="0.0"
     inkscape:pageshadow="2"
     inkscape:zoom="0.7"
     inkscape:cx="223.84066"
     inkscape:cy="220.89393"
     inkscape:document-units="mm"
     inkscape:current-layer="layer1"
     showgrid="false"
     fit-margin-top="0"
     fit-margin-left="0"
     fit-margin-right="0"
     fit-margin-bottom="0"
     inkscape:window-width="1920"
     inkscape:window-height="1145"
     inkscape:window-x="0"
     inkscape:window-y="0"
     inkscape:window-maximized="1" />
  <metadata
     id="metadata962">
    <rdf:RDF>
      <cc:Work
         rdf:about="">
        <dc:format>image/svg+xml</dc:format>
        <dc:type
           rdf:resource="http://purl.org/dc/dcmitype/StillImage" />
        <dc:title />
      </cc:Work>
    </rdf:RDF>
  </metadata>
  <g
     inkscape:label="Layer 1"
     inkscape:groupmode="layer"
     id="layer1"
     transform="translate(-59.990871,-87.2249)">
    <path
       style="fill:#ee962f;stroke-width:0.26458332"
       d="m 134.1005,96.326121 c -10.30809,7.736309 -17.72666,20.079889 -24.08133,31.032709 -0.30515,3.48426 7.37427,1.8278 7.37427,1.8278 1.0879,-2.00667 2.69865,-4.41361 3.76671,-6.12624 -0.92209,1.90603 -1.83463,4.36645 -2.74196,6.31434 4.73709,-0.91039 10.18862,0.89427 13.45815,-2.65823 12.9422,-17.65896 12.67802,-33.071198 2.22416,-30.390379 z M 94.827773,185.35994 c -1.36719,4.07493 -2.65241,8.02887 -3.76257,11.63185 1.12424,-3.60596 2.39681,-7.53607 3.7667,-11.63133 z"
       id="path4-3"
       inkscape:connector-curvature="0"
       sodipodi:nodetypes="ccccccccccc" />
    <path
       style="fill:#de5e29;stroke-width:0.26458332"
       d="m 125.73251,105.36328 c -10.73668,12.87721 -21.21386,30.12814 -26.18873,45.24375 l 8.34528,-0.5855 c 6.21395,-14.85808 13.51401,-29.31251 19.95806,-39.41051 0.0906,-1.84247 -0.72789,-3.50984 -2.11461,-5.24774 z m 14.33816,3.93826 c -4.03634,-0.0744 -7.27417,0.58604 -10.64069,1.26659 -5.41153,7.96599 -10.12015,16.72923 -13.7889,24.42848 l 7.54842,15.86105 c 1.51944,-3.31855 2.86114,-6.85509 2.63241,-7.08381 -1.97891,0.22865 -2.50374,0.3776 -0.6041,-1.08985 1.31448,-1.00243 3.89559,-4.26207 3.60497,-4.5527 -0.019,-0.0263 -0.0858,-0.0202 -0.0858,-0.0202 -0.9373,0.0551 -1.69332,0.6771 -2.62311,0.66301 2.69308,-2.701 6.73331,-7.09042 6.60737,-10.82518 -0.75452,-0.0893 -3.22566,1.03688 -3.22602,0.61673 5.32211,-5.45664 9.47953,-12.39495 10.57545,-19.26412 z"
       id="path6-7"
       inkscape:connector-curvature="0"
       sodipodi:nodetypes="ccccccccccccccccc" />
    <path
       style="fill:#c82235;stroke-width:0.26458332"
       d="m 114.37604,121.40209 c -0.34618,0.0586 -1.03692,0.84297 -1.91256,2.21744 -4.1329,6.48732 -9.33461,16.99077 -11.85826,23.94479 -1.23296,3.39747 -2.57662,8.29121 -3.38586,12.1269 0.82281,-0.48306 3.4999,7.56608 3.69592,8.28942 5.84518,-15.21502 12.70529,-30.0238 18.99585,-44.72802 -1.98858,0.95406 -3.03781,-1.09475 -4.07006,-0.42319 -1.2858,0.82045 -0.86039,-0.9338 -1.46503,-1.4273 z m 7.03165,3.41788 c -4.89522,7.14423 -14.2901,29.97819 -19.17231,42.59324 2.71966,-0.0602 5.62149,-1.31736 8.02512,-2.49801 5.37334,-2.65504 8.88626,-5.79335 11.99727,-11.99565 1.20338,-2.39912 3.61646,-8.74095 3.40601,-8.9514 -0.84762,-0.0947 -3.15138,0.72629 -2.35025,-0.0434 2.55685,-1.61234 5.92424,-5.37845 5.49943,-5.80326 -0.71876,0.096 -3.77087,1.60963 -3.87265,1.0635 4.05414,-3.03496 6.75724,-6.58742 7.59336,-11.10061 -3.47323,1.18712 -10.68949,-0.35982 -11.12598,-3.2644 z"
       id="path8-3"
       inkscape:connector-curvature="0"
       sodipodi:nodetypes="ccsccccccccscccccccc" />
    <path
       style="fill:#722d73;stroke-width:0.26458332"
       d="m 88.565896,200.56486 c 2.231947,-7.43865 4.664917,-14.81943 7.151634,-22.17729 0.79461,-1.15329 0.86607,-3.01494 -1.077217,-2.46985 -1.33643,0.0304 -3.02479,1.00792 -4.10239,0.71224 0.95821,-1.17599 3.10542,-1.5043 3.75485,-2.57879 -0.52509,-0.4774 -3.44642,-1.9859 -1.4274,-1.86452 1.37012,0.40994 4.246607,0.92411 3.043687,-1.43875 -0.744547,-2.61839 -2.035177,-5.03363 -3.419237,-7.35967 -0.24228,-1.24789 1.85715,0.70388 2.34527,1.07568 0.633777,1.10606 1.887367,1.16659 1.715987,-0.36359 0.21202,-1.7791 0.30766,-3.61652 0.93124,-5.30885 0.96772,2.29918 3.38601,7.60341 4.5195,5.66377 -1.55314,4.96329 -3.51605,9.79683 -5.15289,14.73647 -2.225017,6.37955 -4.257067,12.82438 -6.337197,19.25096 -0.2274,0.53277 -1.187297,3.35864 -1.945837,2.12219 z M 98.83827,176.55987 c 1.30006,-3.59572 2.45403,-7.24939 3.93825,-10.77446 0.43485,-0.86451 0.621,1.76554 1.85707,0.88813 0.65709,-0.008 2.98777,-0.80508 2.58549,-0.45118 0.15046,2.31047 8.09621,-1.82694 8.84652,-2.33361 1.30388,-0.24552 -0.68839,2.05961 -1.07159,2.59411 -1.42766,1.89117 -3.42127,3.2053 -5.39434,4.45186 0.28204,1.17715 2.78686,-1.15501 3.39591,-0.43914 -1.3695,2.80482 -4.49657,4.15748 -7.34499,4.99381 -1.61697,0.51256 -3.33065,0.47932 -4.9857,0.66414 -0.48682,0.85636 1.76333,2.86289 0.76462,3.21203 -0.96523,-0.88739 -1.78923,-1.89126 -2.59124,-2.80569 z"
       id="path10-6"
       inkscape:connector-curvature="0"
       sodipodi:nodetypes="ccccccccccccccccccccccccccc" />
  </g>
</svg>
