<svg height="120mm" viewBox="0 0 120 120" width="120mm" xmlns="http://www.w3.org/2000/svg"><g stroke-width=".264583" transform="translate(-59.990871 -87.2249)"><path d="m134.1 96.3c-10.3 7.7-17.7 20.1-24.1 31-.3 3.5 7.4 1.8 7.4 1.8 1.1-2 2.7-4.4 3.8-6.1-.9 1.9-1.8 4.4-2.7 6.3 4.7-.9 10.2.9 13.5-2.7 12.9-17.7 12.7-33.1 2.2-30.4zm-39.3 89.1c-1.4 4.1-2.7 8-3.8 11.6 1.1-3.6 2.4-7.5 3.8-11.6z" fill="#ee962f"/><path d="m125.7 105.4c-10.7 12.9-21.2 30.1-26.2 45.2l8.3-.6c6.2-14.9 13.5-29.3 20-39.4.1-1.8-.7-3.5-2.1-5.2zm14.3 3.9c-4-.1-7.3.6-10.6 1.3-5.4 8-10.1 16.7-13.8 24.4l7.5 15.9c1.5-3.3 2.9-6.9 2.6-7.1-2 .2-2.5.4-.6-1.1 1.3-1 3.9-4.3 3.6-4.6h-.1c-.9.1-1.7.7-2.6.7 2.7-2.7 6.7-7.1 6.6-10.8-.8-.1-3.2 1-3.2.6 5.3-5.5 9.5-12.4 10.6-19.3z" fill="#de5e29"/><path d="m114.4 121.4c-.3.1-1 .8-1.9 2.2-4.1 6.5-9.3 17-11.9 23.9-1.2 3.4-2.6 8.3-3.4 12.1.8-.5 3.5 7.6 3.7 8.3 5.8-15.2 12.7-30 19-44.7-2 1-3-1.1-4.1-.4-1.3.8-.9-.9-1.5-1.4zm7 3.4c-4.9 7.1-14.3 30-19.2 42.6 2.7-.1 5.6-1.3 8-2.5 5.4-2.7 8.9-5.8 12-12 1.2-2.4 3.6-8.7 3.4-9-.8-.1-3.2.7-2.4 0 2.6-1.6 5.9-5.4 5.5-5.8-.7.1-3.8 1.6-3.9 1.1 4.1-3 6.8-6.6 7.6-11.1-3.5 1.2-10.7-.4-11.1-3.3z" fill="#c82235"/><path d="m88.6 200.6c2.2-7.4 4.7-14.8 7.2-22.2.8-1.2.9-3-1.1-2.5-1.3 0-3 1-4.1.7 1-1.2 3.1-1.5 3.8-2.6-.5-.5-3.4-2-1.4-1.9 1.4.4 4.2.9 3-1.4-.7-2.6-2-5-3.4-7.4-.2-1.2 1.9.7 2.3 1.1.6 1.1 1.9 1.2 1.7-.4.2-1.8.3-3.6.9-5.3 1 2.3 3.4 7.6 4.5 5.7-1.6 5-3.5 9.8-5.2 14.7-2.2 6.4-4.3 12.8-6.3 19.3-.2.5-1.2 3.4-1.9 2.1zm10.2-24c1.3-3.6 2.5-7.2 3.9-10.8.4-.9.6 1.8 1.9.9.7 0 3-.8 2.6-.5.2 2.3 8.1-1.8 8.8-2.3 1.3-.2-.7 2.1-1.1 2.6-1.4 1.9-3.4 3.2-5.4 4.5.3 1.2 2.8-1.2 3.4-.4-1.4 2.8-4.5 4.2-7.3 5-1.6.5-3.3.5-5 .7-.5.9 1.8 2.9.8 3.2-1-.9-1.8-1.9-2.6-2.8z" fill="#722d73"/></g></svg>