<?xml version="1.0" encoding="UTF-8" standalone="no"?>
<svg
   xmlns:dc="http://purl.org/dc/elements/1.1/"
   xmlns:cc="http://creativecommons.org/ns#"
   xmlns:rdf="http://www.w3.org/1999/02/22-rdf-syntax-ns#"
   xmlns:svg="http://www.w3.org/2000/svg"
   xmlns="http://www.w3.org/2000/svg"
   xmlns:sodipodi="http://sodipodi.sourceforge.net/DTD/sodipodi-0.dtd"
   xmlns:inkscape="http://www.inkscape.org/namespaces/inkscape"
   height="400"
   viewBox="0 0 400 400"
   width="400"
   version="1.1"
   id="svg12"
   sodipodi:docname="apache-tiny.svg"
   inkscape:version="0.92.2 (5c3e80d, 2017-08-06)">
  <metadata
     id="metadata18">
    <rdf:RDF>
      <cc:Work
         rdf:about="">
        <dc:format>image/svg+xml</dc:format>
        <dc:type
           rdf:resource="http://purl.org/dc/dcmitype/StillImage" />
      </cc:Work>
    </rdf:RDF>
  </metadata>
  <defs
     id="defs16" />
  <sodipodi:namedview
     pagecolor="#ffffff"
     bordercolor="#666666"
     borderopacity="1"
     objecttolerance="10"
     gridtolerance="10"
     guidetolerance="10"
     inkscape:pageopacity="0"
     inkscape:pageshadow="2"
     inkscape:window-width="1920"
     inkscape:window-height="1145"
     id="namedview14"
     showgrid="false"
     inkscape:zoom="1"
     inkscape:cx="174.2027"
     inkscape:cy="219.37161"
     inkscape:window-x="0"
     inkscape:window-y="0"
     inkscape:window-maximized="1"
     inkscape:current-layer="svg12" />
  <path
     d="m0 200v-200h200 200v200 200h-200-200z"
     fill="#fcfcfc"
     id="path2" />
  <path
     d="m -15,397.67057 c 0,-1.60634 23.8343,-75.38809 27.42433,-84.89511 2.51105,-6.64968 2.5171,-6.73644 0.54348,-7.79269 C 4.41309,303.07631 -0.3023,307.9445 -7.68962,307.64372 -4.1833,302.75709 3.22868,301.94187 7,297.9737 c 0,-0.43101 -2.025,-1.97039 -4.5,-3.42083 -5.35693,-3.13937 -5.94883,-5.09903 -1.25,-4.13853 7.49052,1.53117 11.51121,1.78104 12.14546,0.75481 1.64404,-2.66011 -5.05173,-20.28331 -11.55978,-30.42522 -1.70113,-2.65099 -2.81823,-5.09471 -2.48244,-5.43051 0.73943,-0.73942 7.4924,3.82892 10.68768,7.23014 3.70674,3.94565 4.60917,3.13575 5.3412,-4.79356 0.98901,-10.71297 6.01608,-34.56775 10.16801,-48.25 14.17264,-46.70436 46.08909,-106.29066 85.16581,-159 19.32786,-26.070731 39.6352,-47.3493965 46.91236,-49.1562485 6.1088,-1.51675868 11.00765,0.1969602 16.62724,5.8165502 8.10637,8.1063743 9.24723,11.7334533 9.2285,29.3396983 -0.0152,14.310136 -0.16511,15.429235 -3.25876,24.333036 -3.82802,11.017374 -13.94707,31.618962 -20.68958,42.122344 -2.63223,4.10046 -7.27309,10.06296 -10.31301,13.25 -3.03992,3.18704 -5.28859,5.79462 -4.99703,5.79462 0.29155,0 2.21927,-0.70578 4.28381,-1.5684 2.2417,-0.93664 4.11851,-1.20362 4.65935,-0.66278 1.13867,1.13867 -3.16182,13.38042 -7.89012,22.45994 -1.92726,3.70081 -5.70339,8.963 -8.3914,11.69375 -2.68802,2.73074 -4.8873,5.17621 -4.8873,5.43438 0,0.25816 1.33283,-0.0337 2.96183,-0.64859 1.62901,-0.61488 3.25869,-0.82112 3.6215,-0.4583 1.21198,1.21197 -4.69651,9.84951 -10.83072,15.83328 -5.68802,5.54853 -5.90016,5.91672 -3.40904,5.91672 3.49029,0 3.41315,1.04667 -0.94287,12.79367 -10.97586,29.5989 -25.84485,51.28505 -43.28187,63.12581 C 73.87459,260.15969 58.28798,268 56.10265,268 c 3.7678,8.79932 26.82599,-6.62203 35.76422,-10.46647 -4.50063,12.48645 -13.11509,19.32301 -21.77385,24.47072 -10.85459,8.56915 -2.41721,4.84603 7.90698,0.89172 0,1.64064 -5.77249,8.69569 -9.34067,11.41601 C 60.75778,300.33599 45.81304,305 34.41203,305 c -4.95843,0 -5.2035,0.50608 -2.51471,5.19284 2.35263,4.1008 3.50467,7.81129 2.42007,7.79454 C 30.13476,314.56431 27.593,311.23966 23.82466,306.94303 51.24924,231.04482 78.9184,163.9893 108.72024,102.3869 67.60224,168.31928 21.36816,297.16233 -5.02351,381.81271 -8.78592,394.02354 -11.38499,399 -14,399 c -0.55,0 -1,-0.59824 -1,-1.32943 z"
     id="path4"
     inkscape:connector-curvature="0"
     style="fill:#ee962f" />
  <path
     d="m -15,397.67057 c 0,-1.60634 23.8343,-75.38809 27.42433,-84.89511 2.51105,-6.64968 2.5171,-6.73644 0.54348,-7.79269 -2.14394,-1.1474 -6.28374,-0.66812 -14.79196,1.71253 -2.92828,0.81935 -5.56774,1.24614 -5.86547,0.94842 -0.63088,-0.63089 7.345,-5.84412 11.70253,-7.64907 C 5.65581,299.31414 7,298.40471 7,297.9737 c 0,-0.43101 -2.025,-1.97039 -4.5,-3.42083 -5.35693,-3.13937 -5.94883,-5.09903 -1.25,-4.13853 7.49052,1.53117 11.51121,1.78104 12.14546,0.75481 1.64404,-2.66011 -5.05173,-20.28331 -11.55978,-30.42522 -1.70113,-2.65099 -2.81823,-5.09471 -2.48244,-5.43051 0.73943,-0.73942 7.4924,3.82892 10.68768,7.23014 1.26924,1.35104 2.80543,2.45644 3.41377,2.45644 0.65269,0 1.58416,-3.99645 2.27247,-9.75 1.34284,-11.22471 6.66827,-34.21019 11.29473,-48.75 15.96878,-50.18593 50.1477,-111.498585 89.30667,-160.204857 4.95468,-6.162672 9.30744,-11.02011 9.67279,-10.794308 0.36536,0.225802 2.62394,4.293636 5.01907,9.039631 3.93448,7.796232 4.22143,8.838062 2.97306,10.794308 C 106.00656,99.191267 73.74425,164.78573 48.35191,229.45785 30.32389,275.37367 9.15078,335.81023 -5.02351,381.81271 -8.78592,394.02354 -11.38499,399 -14,399 c -0.55,0 -1,-0.59824 -1,-1.32943 z m 43.67603,-85.19613 -4.82397,-5.50033 4.97231,-14.23706 C 44.32069,248.36692 69.84814,185.56671 87.8613,147.5 102.47736,116.61229 122.12432,80.904792 133.61954,64.336384 l 6.35775,-9.163616 7.76135,-0.682658 c 4.26875,-0.375462 13.31755,-1.45288 20.10845,-2.394261 l 12.34708,-1.711603 -0.60512,3.784248 c -0.33282,2.081337 -2.64984,9.082382 -5.14893,15.557877 -8.47528,21.960676 -21.16438,42.923289 -29.69012,49.048609 -2.6125,1.87694 -4.75,3.82042 -4.75,4.31883 0,1.1798 -0.20628,1.21349 6.32223,-1.03265 3.09944,-1.06636 5.8415,-1.60526 6.09347,-1.19756 0.64251,1.03959 -3.47896,12.43522 -7.18241,19.85894 -3.93266,7.88321 -7.42034,12.24652 -13.4868,16.87287 -2.64746,2.01897 -4.5835,3.90092 -4.30232,4.1821 0.28118,0.28118 2.57361,-0.27639 5.09429,-1.23905 2.52068,-0.96265 4.83499,-1.49834 5.14293,-1.19041 1.09841,1.09842 -8.65577,13.41729 -13.62385,17.20599 -6.46579,4.93088 -6.7676,6.80702 -0.72546,4.5098 1.35425,-0.51488 2.70768,-0.69075 3.00761,-0.39081 1.03061,1.03061 -6.35911,19.84276 -13.28779,33.82697 -11.92602,24.07038 -25.17286,38.06423 -45.52558,48.09283 C 61.4908,265.56677 55.95174,268 55.2173,268 c -0.74051,0 -1.02325,0.50497 -0.63471,1.13363 1.07974,1.74706 14.02691,0.39922 20.4117,-2.12492 3.02185,-1.19466 7.67843,-3.74126 10.34795,-5.65912 2.66952,-1.91786 5.1069,-3.23378 5.41641,-2.92428 1.04503,1.04503 -3.2248,7.73717 -8.88429,13.92443 -3.09411,3.38264 -8.37673,7.72526 -11.73917,9.65026 -3.36244,1.925 -6.1184,3.8375 -6.12436,4.25 -0.019,1.3144 3.35282,0.76795 7.84837,-1.27196 5.89634,-2.67553 6.56047,-2.5062 4.44734,1.13393 C 70.365,296.34698 51.17221,305 34.41203,305 c -4.95843,0 -5.2035,0.50608 -2.51471,5.19284 2.35263,4.1008 3.50467,7.81129 2.42007,7.79454 -0.44957,-0.007 -2.98818,-2.48776 -5.64136,-5.51294 z"
     id="path6"
     inkscape:connector-curvature="0"
     style="fill:#de5e29" />
  <path
     d="m -15,397.67057 c 0,-1.60634 23.8343,-75.38809 27.42433,-84.89511 2.51105,-6.64968 2.5171,-6.73644 0.54348,-7.79269 -2.14394,-1.1474 -6.28374,-0.66812 -14.79196,1.71253 -2.92828,0.81935 -5.56774,1.24614 -5.86547,0.94842 -0.63088,-0.63089 7.345,-5.84412 11.70253,-7.64907 C 5.65581,299.31414 7,298.40471 7,297.9737 c 0,-0.43101 -2.025,-1.97039 -4.5,-3.42083 -5.35693,-3.13937 -5.94883,-5.09903 -1.25,-4.13853 7.49052,1.53117 11.51121,1.78104 12.14546,0.75481 1.64404,-2.66011 -5.05173,-20.28331 -11.55978,-30.42522 -1.70113,-2.65099 -2.81823,-5.09471 -2.48244,-5.43051 0.73943,-0.73942 7.4924,3.82892 10.68768,7.23014 1.26924,1.35104 2.80671,2.45644 3.4166,2.45644 0.66009,0 1.60455,-4.14855 2.33354,-10.25 C 17.4592,240.78798 24.65891,212.56488 31.03326,195 40.57142,168.71711 60.23097,129.01902 75.85128,104.5 80.66506,96.943869 84,94.105955 84,97.565741 c 0,0.861158 0.48223,2.466799 1.07162,3.568079 1.00964,1.88653 1.21476,1.90856 3.54641,0.3808 2.32346,-1.522388 2.57898,-1.50011 4.17838,0.36424 1.93687,2.25772 8.49983,3.4249 10.1242,1.80053 0.59367,-0.59367 1.07939,-0.84814 1.07939,-0.5655 0,0.28264 -4.32239,9.71014 -9.60531,20.95 C 73.29808,168.94872 72.72307,170.21058 65.48772,187.5 39.39469,249.85132 14.48787,318.48878 -5.02351,381.81271 -8.78592,394.02354 -11.38499,399 -14,399 c -0.55,0 -1,-0.59824 -1,-1.32943 z m 43.67603,-85.19613 -4.82397,-5.50033 4.97231,-14.23706 C 38.98702,263.63866 55.58029,221.26376 69.2502,189.5 77.24545,170.92202 95.86473,131.02908 97.48744,129 c 0.65978,-0.825 3.30872,-5.41941 5.88654,-10.20981 4.60086,-8.54983 7.57429,-12.35329 6.15054,-7.86743 -0.92367,2.91021 0.77854,4.72391 5.2146,5.55612 2.01732,0.37845 5.48878,1.64276 7.71437,2.80958 2.22558,1.16681 5.62151,2.29222 7.54651,2.50092 1.925,0.20869 4.21043,1.01645 5.07874,1.79503 2.12449,1.90494 4.44053,1.78438 10.87057,-0.56588 2.98159,-1.08981 5.57295,-1.8296 5.75858,-1.64398 0.18562,0.18563 -1.03328,4.22121 -2.70868,8.96796 -5.40777,15.32137 -11.83985,24.07909 -21.90839,29.82979 -2.24148,1.28024 -4.07888,2.70095 -4.08312,3.15716 -0.011,1.18719 5.82602,-0.23619 10.33921,-2.52126 2.11579,-1.07125 4.04939,-1.74523 4.29689,-1.49774 1.60558,1.60559 -16.07034,20.25829 -20.78423,21.93278 -0.74776,0.26562 -1.02497,0.84166 -0.61602,1.28007 0.40896,0.43842 2.59027,0.24384 4.84736,-0.4324 2.25709,-0.67624 4.35026,-0.98307 4.65148,-0.68185 0.79539,0.79538 -8.3246,24.7642 -12.87277,33.83173 -11.7581,23.44177 -25.03474,37.30215 -45.3433,47.33694 C 61.4908,265.55998 55.95174,268 55.2173,268 c -0.74051,0 -1.02325,0.50497 -0.63471,1.13363 1.07974,1.74706 14.02691,0.39922 20.4117,-2.12492 3.02185,-1.19466 7.67843,-3.74126 10.34795,-5.65912 2.66952,-1.91786 5.1069,-3.23378 5.41641,-2.92428 1.04503,1.04503 -3.2248,7.73717 -8.88429,13.92443 -3.09411,3.38264 -8.37673,7.72526 -11.73917,9.65026 -3.36244,1.925 -6.1184,3.8375 -6.12436,4.25 -0.019,1.3144 3.35282,0.76795 7.84837,-1.27196 5.89634,-2.67553 6.56047,-2.5062 4.44734,1.13393 C 70.365,296.34698 51.17221,305 34.41203,305 c -4.95843,0 -5.2035,0.50608 -2.51471,5.19284 2.35263,4.1008 3.50467,7.81129 2.42007,7.79454 -0.44957,-0.007 -2.98818,-2.48776 -5.64136,-5.51294 z"
     id="path8"
     inkscape:connector-curvature="0"
     style="fill:#c82235" />
  <path
     d="m -15,397.67057 c 0,-1.60634 23.8343,-75.38809 27.42433,-84.89511 2.51105,-6.64968 2.5171,-6.73644 0.54348,-7.79269 -2.14394,-1.1474 -6.28374,-0.66812 -14.79196,1.71253 -2.92828,0.81935 -5.56774,1.24614 -5.86547,0.94842 -0.63088,-0.63089 7.345,-5.84412 11.70253,-7.64907 C 5.65581,299.31414 7,298.40471 7,297.9737 c 0,-0.43101 -2.025,-1.97039 -4.5,-3.42083 -5.35693,-3.13937 -5.94883,-5.09903 -1.25,-4.13853 7.49052,1.53117 11.51121,1.78104 12.14546,0.75481 1.64404,-2.66011 -5.05173,-20.28331 -11.55978,-30.42522 -1.70113,-2.65099 -2.81823,-5.09471 -2.48244,-5.43051 0.73943,-0.73942 7.4924,3.82892 10.68768,7.23014 3.61798,3.85116 4.60884,3.10995 5.26719,-3.94011 0.96104,-10.29151 2.82374,-19.63999 3.79385,-19.04044 0.49392,0.30527 0.89804,1.74178 0.89804,3.19226 0,1.45047 1.02369,4.23642 2.27486,6.19098 3.29466,5.14688 4.45945,7.10181 6.73499,11.30375 2.19777,4.05833 4.29735,4.76884 5.91005,2 2.09768,-3.60149 0.82888,0.25868 -8.96695,27.28088 C 16.10761,316.68967 3.12771,355.35803 -5.02351,381.81271 -8.78592,394.02354 -11.38499,399 -14,399 c -0.55,0 -1,-0.59824 -1,-1.32943 z m 43.66233,-85.21167 -4.83767,-5.51587 6.24021,-17.72151 c 7.37968,-20.95752 9.76278,-26.65744 9.86449,-23.59396 0.0388,1.17015 0.75005,2.69141 1.58044,3.38057 1.47583,1.22483 3.22828,1.03718 13.4902,-1.44458 2.07827,-0.50261 2.16262,-0.45055 0.5,0.30859 -1.89478,0.86515 -1.90378,0.95236 -0.17116,1.65777 2.91207,1.18559 13.8353,-0.22963 19.74184,-2.55777 2.97984,-1.17454 7.60204,-3.70469 10.27156,-5.62255 2.66952,-1.91786 5.1069,-3.23378 5.41641,-2.92428 1.04503,1.04503 -3.2248,7.73717 -8.88429,13.92443 -3.09411,3.38264 -8.37673,7.72526 -11.73917,9.65026 -3.36244,1.925 -6.1184,3.8375 -6.12436,4.25 -0.019,1.3144 3.35282,0.76795 7.84837,-1.27196 5.89634,-2.67553 6.56047,-2.5062 4.44734,1.13393 C 70.365,296.34698 51.17221,305 34.41203,305 c -4.95843,0 -5.2035,0.50608 -2.51471,5.19284 2.35263,4.1008 3.50467,7.81129 2.42007,7.79454 -0.44957,-0.007 -2.99434,-2.49476 -5.65506,-5.52848 z"
     id="path10"
     inkscape:connector-curvature="0"
     style="fill:#722d73" />
  <path
     style="fill:#ee962f"
     d="M 562.01367,0.82226562 C 560.60755,0.78709259 559.15611,0.96456033 557.62891,1.34375 550.35175,3.150602 530.04466,24.429269 510.7168,50.5 c -15.35743,20.715146 -31.60036,46.492711 -44.10352,68.13281 -4.28949,8.61559 26.69027,4.03878 29.2207,4.66016 l -1.3496,2.24805 c 4.11173,-7.58426 10.19955,-16.68137 14.23632,-23.1543 -3.48508,7.2039 -6.93401,16.50312 -10.36328,23.86523 l 0.81836,-1.68945 39.9238,-1.36282 c 0.5377,1.24259 4.01469,-0.61705 4.01469,-0.61705 0.397,-0.58263 3.06847,-3.19051 6.10839,-6.37755 3.03992,-3.18704 7.68027,-9.14954 10.3125,-13.25 6.74251,-10.503383 16.86143,-31.103722 20.68945,-42.121096 3.09365,-8.903801 3.24456,-10.023848 3.25977,-24.333984 0.0187,-17.606245 -1.12215,-21.23347 -9.22852,-29.3398438 -4.21469,-4.2146924 -8.02382,-6.23237142 -12.24219,-6.33789058 z M 409.19727,337.84961 c -5.1673,15.40129 -10.02486,30.34532 -14.22071,43.96289 4.2491,-13.62882 9.05879,-28.48279 14.23633,-43.96094 z"
     id="path4-3"
     inkscape:connector-curvature="0"
     sodipodi:nodetypes="sssccccccccscsssscccc" />
  <path
     style="fill:#de5e29"
     d="M 526.00195,35.5 C 525.6366,35.274198 521.2828,40.13225 516.32812,46.294922 477.16915,95.001194 442.99026,156.31407 427.02148,206.5 l 31.54102,-2.21289 C 482.04816,148.13058 509.63881,93.499653 533.99414,55.333984 534.33646,48.370325 531.24304,42.068437 526.00195,35.5 Z m 54.19141,14.884766 c -13.48771,1.991605 -28.25055,3.730183 -40.2168,4.787109 l -6.35742,9.164063 C 522.12392,80.904346 502.47739,116.61229 487.86133,147.5 l 28.52929,59.94727 c 5.74272,-12.54253 10.81368,-25.90898 9.94922,-26.77344 -0.29993,-0.29994 -1.65356,-0.12426 -3.00781,0.39062 -6.04214,2.29722 -5.74118,0.42112 0.72461,-4.50976 4.96808,-3.7887 14.72341,-16.10861 13.625,-17.20703 -0.0718,-0.0994 -0.32422,-0.0762 -0.32422,-0.0762 -3.54253,0.20827 -6.39991,2.5591 -9.91406,2.50586 -0.28118,-0.28118 1.65527,-2.16267 4.30273,-4.18164 7.13063,-7.44089 21.65143,-24.47355 20.66993,-36.73242 -2.8517,-0.33738 -12.41468,3.81843 -12.41602,2.23047 18.796,-18.68704 35.06057,-46.07832 39.58984,-68.925781 z"
     id="path6-7"
     inkscape:connector-curvature="0"
     sodipodi:nodetypes="cscccccccccccccccccccc" />
  <path
     style="fill:#c82235"
     d="m 483.08008,96.119141 c -1.30837,0.221395 -3.91904,3.186018 -7.22852,8.380859 -15.62031,24.51902 -35.2802,64.21711 -44.81836,90.5 -4.65998,12.84085 -9.73835,31.33685 -12.79687,45.83398 0.95186,-3.02238 1.75275,0.8704 1.76367,1.92188 0,1.45047 1.02422,4.23489 2.27539,6.18945 3.29466,5.14688 5.48992,6.69105 6.73438,11.30469 2.7608,10.23524 3.19531,11.91406 3.19531,11.91406 19.85101,-56.2642 47.30719,-116.43355 62.18945,-148.09961 C 499.67745,112.82459 504,103.39592 504,103.11328 c -2.97429,1.51808 -8.79882,1.29891 -11.20312,-1.23437 -1.59941,-1.86435 -1.85623,-1.887628 -4.17969,-0.36524 -4.8597,3.10092 -3.25186,-3.529332 -5.53711,-5.394529 z m 26.57617,12.917969 c -5.59976,6.19288 -7.50218,11.83411 -12.16797,19.96289 -23.42678,45.95801 -41.70157,92.9513 -60.29389,141.01942 10.27899,-0.22767 21.24648,-4.97899 30.331,-9.4413 20.30856,-10.03478 33.58565,-21.89612 45.34375,-45.33789 4.54817,-9.06753 13.66844,-33.03665 12.87305,-33.83203 -3.20361,-0.35792 -11.91068,2.745 -8.88281,-0.16406 9.66363,-6.09391 22.39073,-20.328 20.78515,-21.93359 -2.71656,0.36302 -14.25202,6.08363 -14.63672,4.01953 0.004,-0.45621 1.84055,-1.87797 4.08203,-3.1582 10.06854,-5.7507 16.50239,-14.50871 21.91016,-29.83008 1.6754,-4.74675 2.89265,-8.78117 2.70703,-8.9668 -5.52866,1.17227 -10.46072,3.96139 -16.62891,2.20898 -7.52293,-1.7621 -12.89183,-5.62607 -20.33984,-7.10546 -7.21857,-2.33769 -4.64179,-3.763 -5.08203,-7.44141 z"
     id="path8-3"
     inkscape:connector-curvature="0"
     sodipodi:nodetypes="ccsccssccccccccccscccccccccc" />
  <path
     style="fill:#722d73"
     d="m 385.53033,395.31702 c 8.43574,-28.1146 17.63121,-56.01044 27.0298,-83.81969 3.00324,-4.35888 3.27332,-11.39505 -4.07137,-9.33486 -5.05105,0.11494 -11.43226,3.80946 -15.50507,2.69193 3.62156,-4.44468 11.737,-5.68553 14.19156,-9.74662 -1.98461,-1.80435 -13.02587,-7.50574 -5.39492,-7.04699 5.17843,1.54938 16.05015,3.4927 11.50368,-5.43781 -2.81399,-9.89627 -7.69198,-19.02475 -12.92306,-27.81605 -0.9157,-4.71644 7.01914,2.66033 8.864,4.06556 2.39538,4.18036 7.13333,4.40916 6.48559,-1.37422 0.80133,-6.72414 1.16282,-13.66874 3.51962,-20.06492 3.65753,8.68979 12.79746,28.73726 17.08148,21.40636 -5.87009,18.75887 -13.28891,37.02737 -19.47536,55.69688 -8.40948,24.1117 -16.08968,48.47011 -23.95157,72.75953 -0.85947,2.01362 -4.48745,12.69408 -7.35438,8.0209 z m 38.82466,-90.72754 c 4.91359,-13.5901 9.27501,-27.39926 14.88463,-40.72236 1.64352,-3.26743 2.34708,6.67291 7.01882,3.3567 2.4835,-0.0299 11.29229,-3.04281 9.77189,-1.70523 0.56867,8.73249 30.59968,-6.90496 33.43545,-8.81995 4.92803,-0.92795 -2.60178,7.78436 -4.05007,9.80452 -5.39585,7.14773 -12.93072,12.11451 -20.38795,16.82591 1.06597,4.44907 10.53295,-4.36537 12.83486,-1.65975 -5.17602,10.60092 -16.99479,15.71334 -27.7604,18.87425 -6.11137,1.93726 -12.58825,1.81162 -18.84349,2.51016 -1.83995,3.23662 6.6645,10.82034 2.88989,12.13994 -3.6481,-3.35393 -6.76243,-7.14806 -9.79363,-10.60419 z"
     id="path10-6"
     inkscape:connector-curvature="0"
     sodipodi:nodetypes="ccccccccccccccccccccccccccc" />
</svg>
