<?xml version="1.0" encoding="UTF-8" standalone="no"?>
<!-- Created with Inkscape (http://www.inkscape.org/) -->

<svg
   xmlns:dc="http://purl.org/dc/elements/1.1/"
   xmlns:cc="http://creativecommons.org/ns#"
   xmlns:rdf="http://www.w3.org/1999/02/22-rdf-syntax-ns#"
   xmlns:svg="http://www.w3.org/2000/svg"
   xmlns="http://www.w3.org/2000/svg"
   xmlns:sodipodi="http://sodipodi.sourceforge.net/DTD/sodipodi-0.dtd"
   xmlns:inkscape="http://www.inkscape.org/namespaces/inkscape"
   version="1.1"
   id="svg2"
   width="400"
   height="400"
   viewBox="0 0 400 400"
   sodipodi:docname="apache.svg"
   inkscape:version="0.92.2 (5c3e80d, 2017-08-06)">
  <metadata
     id="metadata8">
    <rdf:RDF>
      <cc:Work
         rdf:about="">
        <dc:format>image/svg+xml</dc:format>
        <dc:type
           rdf:resource="http://purl.org/dc/dcmitype/StillImage" />
        <dc:title></dc:title>
      </cc:Work>
    </rdf:RDF>
  </metadata>
  <defs
     id="defs6" />
  <sodipodi:namedview
     pagecolor="#ffffff"
     bordercolor="#666666"
     borderopacity="1"
     objecttolerance="10"
     gridtolerance="10"
     guidetolerance="10"
     inkscape:pageopacity="0"
     inkscape:pageshadow="2"
     inkscape:window-width="1920"
     inkscape:window-height="1145"
     id="namedview4"
     showgrid="false"
     inkscape:zoom="1.668772"
     inkscape:cx="412.67257"
     inkscape:cy="212.1077"
     inkscape:window-x="0"
     inkscape:window-y="0"
     inkscape:window-maximized="1"
     inkscape:current-layer="svg2" />
  <path
     inkscape:connector-curvature="0"
     id="path829"
     d="M 0,200 V 0 H 200 400 V 200 400 H 200 0 Z"
     style="fill:#fcfcfc" />
  <path
     inkscape:connector-curvature="0"
     id="path827"
     d="m 85,397.67057 c 0,-1.60634 23.8343,-75.38809 27.42433,-84.89511 2.51105,-6.64968 2.5171,-6.73644 0.54348,-7.79269 -8.55472,-1.90646 -13.27011,2.96173 -20.65743,2.66095 3.50632,-4.88663 10.9183,-5.70185 14.68962,-9.67002 0,-0.43101 -2.025,-1.97039 -4.5,-3.42083 -5.35693,-3.13937 -5.94883,-5.09903 -1.25,-4.13853 7.49052,1.53117 11.51121,1.78104 12.14546,0.75481 1.64404,-2.66011 -5.05173,-20.28331 -11.55978,-30.42522 -1.70113,-2.65099 -2.81823,-5.09471 -2.48244,-5.43051 0.73943,-0.73942 7.4924,3.82892 10.68768,7.23014 3.70674,3.94565 4.60917,3.13575 5.3412,-4.79356 0.98901,-10.71297 6.01608,-34.56775 10.16801,-48.25 14.17264,-46.70436 46.08909,-106.29066 85.16581,-159 19.32786,-26.070731 39.6352,-47.3493965 46.91236,-49.1562485 6.1088,-1.51675868 11.00765,0.1969602 16.62724,5.8165502 8.10637,8.1063743 9.24723,11.7334533 9.2285,29.3396983 -0.0152,14.310136 -0.16511,15.429235 -3.25876,24.333036 -3.82802,11.017374 -13.94707,31.618962 -20.68958,42.122344 -2.63223,4.10046 -7.27309,10.06296 -10.31301,13.25 -3.03992,3.18704 -5.28859,5.79462 -4.99703,5.79462 0.29155,0 2.21927,-0.70578 4.28381,-1.5684 2.2417,-0.93664 4.11851,-1.20362 4.65935,-0.66278 1.13867,1.13867 -3.16182,13.38042 -7.89012,22.45994 -1.92726,3.70081 -5.70339,8.963 -8.3914,11.69375 -2.68802,2.73074 -4.8873,5.17621 -4.8873,5.43438 0,0.25816 1.33283,-0.0337 2.96183,-0.64859 1.62901,-0.61488 3.25869,-0.82112 3.6215,-0.4583 1.21198,1.21197 -4.69651,9.84951 -10.83072,15.83328 -5.68802,5.54853 -5.90016,5.91672 -3.40904,5.91672 3.49029,0 3.41315,1.04667 -0.94287,12.79367 -10.97586,29.5989 -25.84485,51.28505 -43.28187,63.12581 C 173.87459,260.15969 158.28798,268 156.10265,268 c 3.7678,8.79932 26.82599,-6.62203 35.76422,-10.46647 -4.50063,12.48645 -13.11509,19.32301 -21.77385,24.47072 -10.85459,8.56915 -2.41721,4.84603 7.90698,0.89172 0,1.64064 -5.77249,8.69569 -9.34067,11.41601 C 160.75778,300.33599 145.81304,305 134.41203,305 c -4.95843,0 -5.2035,0.50608 -2.51471,5.19284 2.35263,4.1008 3.50467,7.81129 2.42007,7.79454 -4.18263,-3.42307 -6.72439,-6.74772 -10.49273,-11.04435 C 151.24924,231.04482 178.9184,163.9893 208.72024,102.3869 167.60224,168.31928 121.36816,297.16233 94.97649,381.81271 91.21408,394.02354 88.61501,399 86,399 c -0.55,0 -1,-0.59824 -1,-1.32943 z"
     style="fill:#ee962f"
     sodipodi:nodetypes="ssccccccccsssssscscssssccsccssssccccssscccccs" />
  <path
     inkscape:connector-curvature="0"
     id="path825"
     d="m 85,397.67057 c 0,-1.60634 23.8343,-75.38809 27.42433,-84.89511 2.51105,-6.64968 2.5171,-6.73644 0.54348,-7.79269 -2.14394,-1.1474 -6.28374,-0.66812 -14.79196,1.71253 -2.92828,0.81935 -5.56774,1.24614 -5.86547,0.94842 -0.63088,-0.63089 7.345,-5.84412 11.70253,-7.64907 1.6429,-0.68051 2.98709,-1.58994 2.98709,-2.02095 0,-0.43101 -2.025,-1.97039 -4.5,-3.42083 -5.35693,-3.13937 -5.94883,-5.09903 -1.25,-4.13853 7.49052,1.53117 11.51121,1.78104 12.14546,0.75481 1.64404,-2.66011 -5.05173,-20.28331 -11.55978,-30.42522 -1.70113,-2.65099 -2.81823,-5.09471 -2.48244,-5.43051 0.73943,-0.73942 7.4924,3.82892 10.68768,7.23014 1.26924,1.35104 2.80543,2.45644 3.41377,2.45644 0.65269,0 1.58416,-3.99645 2.27247,-9.75 1.34284,-11.22471 6.66827,-34.21019 11.29473,-48.75 15.96878,-50.18593 50.1477,-111.498585 89.30667,-160.204857 4.95468,-6.162672 9.30744,-11.02011 9.67279,-10.794308 0.36536,0.225802 2.62394,4.293636 5.01907,9.039631 3.93448,7.796232 4.22143,8.838062 2.97306,10.794308 C 206.00656,99.191267 173.74425,164.78573 148.35191,229.45785 130.32389,275.37367 109.15078,335.81023 94.97649,381.81271 91.21408,394.02354 88.61501,399 86,399 c -0.55,0 -1,-0.59824 -1,-1.32943 z m 43.67603,-85.19613 -4.82397,-5.50033 4.97231,-14.23706 C 144.32069,248.36692 169.84814,185.56671 187.8613,147.5 202.47736,116.61229 222.12432,80.904792 233.61954,64.336384 l 6.35775,-9.163616 7.76135,-0.682658 c 4.26875,-0.375462 13.31755,-1.45288 20.10845,-2.394261 l 12.34708,-1.711603 -0.60512,3.784248 c -0.33282,2.081337 -2.64984,9.082382 -5.14893,15.557877 -8.47528,21.960676 -21.16438,42.923289 -29.69012,49.048609 -2.6125,1.87694 -4.75,3.82042 -4.75,4.31883 0,1.1798 -0.20628,1.21349 6.32223,-1.03265 3.09944,-1.06636 5.8415,-1.60526 6.09347,-1.19756 0.64251,1.03959 -3.47896,12.43522 -7.18241,19.85894 -3.93266,7.88321 -7.42034,12.24652 -13.4868,16.87287 -2.64746,2.01897 -4.5835,3.90092 -4.30232,4.1821 0.28118,0.28118 2.57361,-0.27639 5.09429,-1.23905 2.52068,-0.96265 4.83499,-1.49834 5.14293,-1.19041 1.09841,1.09842 -8.65577,13.41729 -13.62385,17.20599 -6.46579,4.93088 -6.7676,6.80702 -0.72546,4.5098 1.35425,-0.51488 2.70768,-0.69075 3.00761,-0.39081 1.03061,1.03061 -6.35911,19.84276 -13.28779,33.82697 -11.92602,24.07038 -25.17286,38.06423 -45.52558,48.09283 C 161.4908,265.56677 155.95174,268 155.2173,268 c -0.74051,0 -1.02325,0.50497 -0.63471,1.13363 1.07974,1.74706 14.02691,0.39922 20.4117,-2.12492 3.02185,-1.19466 7.67843,-3.74126 10.34795,-5.65912 2.66952,-1.91786 5.1069,-3.23378 5.41641,-2.92428 1.04503,1.04503 -3.2248,7.73717 -8.88429,13.92443 -3.09411,3.38264 -8.37673,7.72526 -11.73917,9.65026 -3.36244,1.925 -6.1184,3.8375 -6.12436,4.25 -0.019,1.3144 3.35282,0.76795 7.84837,-1.27196 5.89634,-2.67553 6.56047,-2.5062 4.44734,1.13393 C 170.365,296.34698 151.17221,305 134.41203,305 c -4.95843,0 -5.2035,0.50608 -2.51471,5.19284 2.35263,4.1008 3.50467,7.81129 2.42007,7.79454 -0.44957,-0.007 -2.98818,-2.48776 -5.64136,-5.51294 z"
     style="fill:#de5e29" />
  <path
     inkscape:connector-curvature="0"
     id="path823"
     d="m 85,397.67057 c 0,-1.60634 23.8343,-75.38809 27.42433,-84.89511 2.51105,-6.64968 2.5171,-6.73644 0.54348,-7.79269 -2.14394,-1.1474 -6.28374,-0.66812 -14.79196,1.71253 -2.92828,0.81935 -5.56774,1.24614 -5.86547,0.94842 -0.63088,-0.63089 7.345,-5.84412 11.70253,-7.64907 1.6429,-0.68051 2.98709,-1.58994 2.98709,-2.02095 0,-0.43101 -2.025,-1.97039 -4.5,-3.42083 -5.35693,-3.13937 -5.94883,-5.09903 -1.25,-4.13853 7.49052,1.53117 11.51121,1.78104 12.14546,0.75481 1.64404,-2.66011 -5.05173,-20.28331 -11.55978,-30.42522 -1.70113,-2.65099 -2.81823,-5.09471 -2.48244,-5.43051 0.73943,-0.73942 7.4924,3.82892 10.68768,7.23014 1.26924,1.35104 2.80671,2.45644 3.4166,2.45644 0.66009,0 1.60455,-4.14855 2.33354,-10.25 1.66814,-13.96202 8.86785,-42.18512 15.2422,-59.75 9.53816,-26.28289 29.19771,-65.98098 44.81802,-90.5 C 180.66506,96.943869 184,94.105955 184,97.565741 c 0,0.861158 0.48223,2.466799 1.07162,3.568079 1.00964,1.88653 1.21476,1.90856 3.54641,0.3808 2.32346,-1.522388 2.57898,-1.50011 4.17838,0.36424 1.93687,2.25772 8.49983,3.4249 10.1242,1.80053 0.59367,-0.59367 1.07939,-0.84814 1.07939,-0.5655 0,0.28264 -4.32239,9.71014 -9.60531,20.95 C 173.29808,168.94872 172.72307,170.21058 165.48772,187.5 139.39469,249.85132 114.48787,318.48878 94.97649,381.81271 91.21408,394.02354 88.61501,399 86,399 c -0.55,0 -1,-0.59824 -1,-1.32943 z m 43.67603,-85.19613 -4.82397,-5.50033 4.97231,-14.23706 C 138.98702,263.63866 155.58029,221.26376 169.2502,189.5 c 7.99525,-18.57798 26.61453,-58.47092 28.23724,-60.5 0.65978,-0.825 3.30872,-5.41941 5.88654,-10.20981 4.60086,-8.54983 7.57429,-12.35329 6.15054,-7.86743 -0.92367,2.91021 0.77854,4.72391 5.2146,5.55612 2.01732,0.37845 5.48878,1.64276 7.71437,2.80958 2.22558,1.16681 5.62151,2.29222 7.54651,2.50092 1.925,0.20869 4.21043,1.01645 5.07874,1.79503 2.12449,1.90494 4.44053,1.78438 10.87057,-0.56588 2.98159,-1.08981 5.57295,-1.8296 5.75858,-1.64398 0.18562,0.18563 -1.03328,4.22121 -2.70868,8.96796 -5.40777,15.32137 -11.83985,24.07909 -21.90839,29.82979 -2.24148,1.28024 -4.07888,2.70095 -4.08312,3.15716 -0.011,1.18719 5.82602,-0.23619 10.33921,-2.52126 2.11579,-1.07125 4.04939,-1.74523 4.29689,-1.49774 1.60558,1.60559 -16.07034,20.25829 -20.78423,21.93278 -0.74776,0.26562 -1.02497,0.84166 -0.61602,1.28007 0.40896,0.43842 2.59027,0.24384 4.84736,-0.4324 2.25709,-0.67624 4.35026,-0.98307 4.65148,-0.68185 0.79539,0.79538 -8.3246,24.7642 -12.87277,33.83173 -11.7581,23.44177 -25.03474,37.30215 -45.3433,47.33694 C 161.4908,265.55998 155.95174,268 155.2173,268 c -0.74051,0 -1.02325,0.50497 -0.63471,1.13363 1.07974,1.74706 14.02691,0.39922 20.4117,-2.12492 3.02185,-1.19466 7.67843,-3.74126 10.34795,-5.65912 2.66952,-1.91786 5.1069,-3.23378 5.41641,-2.92428 1.04503,1.04503 -3.2248,7.73717 -8.88429,13.92443 -3.09411,3.38264 -8.37673,7.72526 -11.73917,9.65026 -3.36244,1.925 -6.1184,3.8375 -6.12436,4.25 -0.019,1.3144 3.35282,0.76795 7.84837,-1.27196 5.89634,-2.67553 6.56047,-2.5062 4.44734,1.13393 C 170.365,296.34698 151.17221,305 134.41203,305 c -4.95843,0 -5.2035,0.50608 -2.51471,5.19284 2.35263,4.1008 3.50467,7.81129 2.42007,7.79454 -0.44957,-0.007 -2.98818,-2.48776 -5.64136,-5.51294 z"
     style="fill:#c82235" />
  <path
     inkscape:connector-curvature="0"
     id="path819"
     d="m 85,397.67057 c 0,-1.60634 23.8343,-75.38809 27.42433,-84.89511 2.51105,-6.64968 2.5171,-6.73644 0.54348,-7.79269 -2.14394,-1.1474 -6.28374,-0.66812 -14.79196,1.71253 -2.92828,0.81935 -5.56774,1.24614 -5.86547,0.94842 -0.63088,-0.63089 7.345,-5.84412 11.70253,-7.64907 1.6429,-0.68051 2.98709,-1.58994 2.98709,-2.02095 0,-0.43101 -2.025,-1.97039 -4.5,-3.42083 -5.35693,-3.13937 -5.94883,-5.09903 -1.25,-4.13853 7.49052,1.53117 11.51121,1.78104 12.14546,0.75481 1.64404,-2.66011 -5.05173,-20.28331 -11.55978,-30.42522 -1.70113,-2.65099 -2.81823,-5.09471 -2.48244,-5.43051 0.73943,-0.73942 7.4924,3.82892 10.68768,7.23014 3.61798,3.85116 4.60884,3.10995 5.26719,-3.94011 0.96104,-10.29151 2.82374,-19.63999 3.79385,-19.04044 0.49392,0.30527 0.89804,1.74178 0.89804,3.19226 0,1.45047 1.02369,4.23642 2.27486,6.19098 3.29466,5.14688 4.45945,7.10181 6.73499,11.30375 2.19777,4.05833 4.29735,4.76884 5.91005,2 2.09768,-3.60149 0.82888,0.25868 -8.96695,27.28088 -9.84534,27.15879 -22.82524,65.82715 -30.97646,92.28183 C 91.21408,394.02354 88.61501,399 86,399 c -0.55,0 -1,-0.59824 -1,-1.32943 z m 43.66233,-85.21167 -4.83767,-5.51587 6.24021,-17.72151 c 7.37968,-20.95752 9.76278,-26.65744 9.86449,-23.59396 0.0388,1.17015 0.75005,2.69141 1.58044,3.38057 1.47583,1.22483 3.22828,1.03718 13.4902,-1.44458 2.07827,-0.50261 2.16262,-0.45055 0.5,0.30859 -1.89478,0.86515 -1.90378,0.95236 -0.17116,1.65777 2.91207,1.18559 13.8353,-0.22963 19.74184,-2.55777 2.97984,-1.17454 7.60204,-3.70469 10.27156,-5.62255 2.66952,-1.91786 5.1069,-3.23378 5.41641,-2.92428 1.04503,1.04503 -3.2248,7.73717 -8.88429,13.92443 -3.09411,3.38264 -8.37673,7.72526 -11.73917,9.65026 -3.36244,1.925 -6.1184,3.8375 -6.12436,4.25 -0.019,1.3144 3.35282,0.76795 7.84837,-1.27196 5.89634,-2.67553 6.56047,-2.5062 4.44734,1.13393 C 170.365,296.34698 151.17221,305 134.41203,305 c -4.95843,0 -5.2035,0.50608 -2.51471,5.19284 2.35263,4.1008 3.50467,7.81129 2.42007,7.79454 -0.44957,-0.007 -2.99434,-2.49476 -5.65506,-5.52848 z"
     style="fill:#722d73" />
</svg>
