<svg xmlns="http://www.w3.org/2000/svg" aria-label="Apereo Foundation" role="img" viewBox="0 0 512 512">
  <rect width="512" height="512" rx="15%" fill="#fff"/>
  <linearGradient id="a" y1=".5" y2="0">
    <stop offset="0" stop-color="#677"/>
    <stop offset=".2" stop-color="#344"/>
  </linearGradient>
  <linearGradient id="b" x1="1" y2="1">
    <stop offset="0" stop-color="#9dd"/>
    <stop offset=".8" stop-color="#4ab"/>
  </linearGradient>
  <path d="m231,96c-97,0-171,97-150,203 30,104 162,142 258,80-15-32 0-66-21-99-36,68-112,93-165,19-32-57 6-112 36-125 82-42 120,13 205-10 10-4 23-30 32-46-72,13-116-15-179-22z" fill="url(#a)"/>
  <path d="m313 191c27 4 57 4 80-4 10 95-21 122 40 226-19-10-42-15-48-15-6 4-17 11-23 17-65-74-36-175-51-224z" fill="url(#b)"/>
</svg>
