<svg viewBox="0 0 512 512" xmlns="http://www.w3.org/2000/svg" xmlns:xlink="http://www.w3.org/1999/xlink"><linearGradient id="a" gradientUnits="userSpaceOnUse" x1="40.319281" x2="-83.738733" y1="78.647475" y2="118.959915"><stop offset="0" stop-color="#323c42"/><stop offset="1" stop-color="#323c42" stop-opacity="0"/></linearGradient><linearGradient id="b" gradientUnits="userSpaceOnUse" x1="155.921099" x2="140.439799" y1="132.903233" y2="1.282602"><stop offset="0" stop-color="#43aac0"/><stop offset="1" stop-color="#43aac0" stop-opacity="0"/></linearGradient><g transform="matrix(1.9009756 0 0 1.9009756 79.028867 96.410028)"><path d="m80.882017.00713676c-51.787895.687541-89.7399822 50.99693724-79.0800782 107.45507324 16.0790092 54.88883 85.2714952 75.0497 136.0019512 41.73047-8.1567-16.7996-10.38727-34.86027-11.16601-51.570305-18.68355 35.642805-59.164319 48.543255-87.49805 9.781245-17.468186-30.077095 3.453993-58.522958 19.492187-65.917967 42.928053-21.54676 62.676723 6.501233 107.570313-4.865235 5.23391-1.847288 11.73976-16.240105 16.62695-24.347656-37.77261 7.478925-61.46066-8.4084982-94.210935-12.00195324-2.609737-.211395-5.189382-.297486-7.736328-.263672z" fill="url(#a)"/><path d="m122.84711 49.903231c13.62843 1.910802 30.08305 2.292736 42.33678-1.741256 5.04123 49.53915-11.15352 63.639985 21.00591 119.098415-9.75366-4.45981-21.88597-7.71967-24.76871-8.35716-2.70433 1.47325-9.19547 6.37843-11.54327 9-33.69507-38.84517-18.94688-92.118119-27.03071-117.999999z" fill="url(#b)"/></g></svg>